<svg width="129" height="164" viewBox="0 0 129 164" fill="none" xmlns="http://www.w3.org/2000/svg">
<path d="M4.29209 146.8C5.72143 146.8 6.84143 147.141 7.65209 147.824C8.46276 148.507 8.86809 149.445 8.86809 150.64C8.86809 151.835 8.46276 152.773 7.65209 153.456C6.84143 154.128 5.72143 154.464 4.29209 154.464H1.28409V158H0.100093V146.8H4.29209ZM4.26009 153.424C5.36943 153.424 6.21743 153.184 6.80409 152.704C7.39076 152.213 7.68409 151.525 7.68409 150.64C7.68409 149.733 7.39076 149.04 6.80409 148.56C6.21743 148.069 5.36943 147.824 4.26009 147.824H1.28409V153.424H4.26009ZM18.6465 158.096C17.5372 158.096 16.5292 157.851 15.6225 157.36C14.7265 156.859 14.0225 156.176 13.5105 155.312C13.0092 154.448 12.7585 153.477 12.7585 152.4C12.7585 151.323 13.0092 150.352 13.5105 149.488C14.0225 148.624 14.7265 147.947 15.6225 147.456C16.5292 146.955 17.5372 146.704 18.6465 146.704C19.7559 146.704 20.7532 146.949 21.6385 147.44C22.5345 147.931 23.2385 148.613 23.7505 149.488C24.2625 150.352 24.5185 151.323 24.5185 152.4C24.5185 153.477 24.2625 154.453 23.7505 155.328C23.2385 156.192 22.5345 156.869 21.6385 157.36C20.7532 157.851 19.7559 158.096 18.6465 158.096ZM18.6465 157.04C19.5319 157.04 20.3319 156.843 21.0465 156.448C21.7612 156.043 22.3212 155.488 22.7265 154.784C23.1319 154.069 23.3345 153.275 23.3345 152.4C23.3345 151.525 23.1319 150.736 22.7265 150.032C22.3212 149.317 21.7612 148.763 21.0465 148.368C20.3319 147.963 19.5319 147.76 18.6465 147.76C17.7612 147.76 16.9559 147.963 16.2305 148.368C15.5159 148.763 14.9505 149.317 14.5345 150.032C14.1292 150.736 13.9265 151.525 13.9265 152.4C13.9265 153.275 14.1292 154.069 14.5345 154.784C14.9505 155.488 15.5159 156.043 16.2305 156.448C16.9559 156.843 17.7612 157.04 18.6465 157.04ZM32.4265 158.096C31.5945 158.096 30.7945 157.963 30.0265 157.696C29.2692 157.429 28.6825 157.077 28.2665 156.64L28.7305 155.728C29.1358 156.133 29.6745 156.464 30.3465 156.72C31.0185 156.965 31.7118 157.088 32.4265 157.088C33.4292 157.088 34.1812 156.907 34.6825 156.544C35.1838 156.171 35.4345 155.691 35.4345 155.104C35.4345 154.656 35.2958 154.299 35.0185 154.032C34.7518 153.765 34.4212 153.563 34.0265 153.424C33.6318 153.275 33.0825 153.115 32.3785 152.944C31.5358 152.731 30.8638 152.528 30.3625 152.336C29.8612 152.133 29.4292 151.829 29.0665 151.424C28.7145 151.019 28.5385 150.469 28.5385 149.776C28.5385 149.211 28.6878 148.699 28.9865 148.24C29.2852 147.771 29.7438 147.397 30.3625 147.12C30.9812 146.843 31.7492 146.704 32.6665 146.704C33.3065 146.704 33.9305 146.795 34.5385 146.976C35.1572 147.147 35.6905 147.387 36.1385 147.696L35.7385 148.64C35.2692 148.331 34.7678 148.101 34.2345 147.952C33.7012 147.792 33.1785 147.712 32.6665 147.712C31.6852 147.712 30.9438 147.904 30.4425 148.288C29.9518 148.661 29.7065 149.147 29.7065 149.744C29.7065 150.192 29.8398 150.555 30.1065 150.832C30.3838 151.099 30.7252 151.307 31.1305 151.456C31.5465 151.595 32.1012 151.749 32.7945 151.92C33.6158 152.123 34.2772 152.325 34.7785 152.528C35.2905 152.72 35.7225 153.019 36.0745 153.424C36.4265 153.819 36.6025 154.357 36.6025 155.04C36.6025 155.605 36.4478 156.123 36.1385 156.592C35.8398 157.051 35.3758 157.419 34.7465 157.696C34.1172 157.963 33.3438 158.096 32.4265 158.096ZM43.3681 147.824H39.4321V146.8H48.4881V147.824H44.5521V158H43.3681V147.824ZM60.2774 152.4H61.4134V156.672C60.8907 157.131 60.2721 157.483 59.5574 157.728C58.8427 157.973 58.0907 158.096 57.3014 158.096C56.1814 158.096 55.1734 157.851 54.2774 157.36C53.3814 156.869 52.6774 156.192 52.1654 155.328C51.6534 154.453 51.3974 153.477 51.3974 152.4C51.3974 151.323 51.6534 150.352 52.1654 149.488C52.6774 148.613 53.3814 147.931 54.2774 147.44C55.1734 146.949 56.1867 146.704 57.3174 146.704C58.1707 146.704 58.9547 146.843 59.6694 147.12C60.3841 147.387 60.9867 147.787 61.4774 148.32L60.7414 149.072C59.8561 148.197 58.7307 147.76 57.3654 147.76C56.4587 147.76 55.6374 147.963 54.9014 148.368C54.1761 148.763 53.6054 149.317 53.1894 150.032C52.7734 150.736 52.5654 151.525 52.5654 152.4C52.5654 153.275 52.7734 154.064 53.1894 154.768C53.6054 155.472 54.1761 156.027 54.9014 156.432C55.6267 156.837 56.4427 157.04 57.3494 157.04C58.5014 157.04 59.4774 156.752 60.2774 156.176V152.4ZM74.5785 158L72.0185 154.4C71.7305 154.432 71.4318 154.448 71.1225 154.448H68.1145V158H66.9305V146.8H71.1225C72.5518 146.8 73.6718 147.141 74.4825 147.824C75.2931 148.507 75.6985 149.445 75.6985 150.64C75.6985 151.515 75.4745 152.256 75.0265 152.864C74.5891 153.461 73.9598 153.893 73.1385 154.16L75.8745 158H74.5785ZM71.0905 153.44C72.1998 153.44 73.0478 153.195 73.6345 152.704C74.2211 152.213 74.5145 151.525 74.5145 150.64C74.5145 149.733 74.2211 149.04 73.6345 148.56C73.0478 148.069 72.1998 147.824 71.0905 147.824H68.1145V153.44H71.0905ZM88.579 156.976V158H80.659V146.8H88.339V147.824H81.843V151.808H87.635V152.816H81.843V156.976H88.579ZM96.6162 158.096C95.7842 158.096 94.9842 157.963 94.2162 157.696C93.4589 157.429 92.8722 157.077 92.4562 156.64L92.9202 155.728C93.3256 156.133 93.8642 156.464 94.5362 156.72C95.2082 156.965 95.9016 157.088 96.6162 157.088C97.6189 157.088 98.3709 156.907 98.8722 156.544C99.3736 156.171 99.6242 155.691 99.6242 155.104C99.6242 154.656 99.4856 154.299 99.2082 154.032C98.9416 153.765 98.6109 153.563 98.2162 153.424C97.8216 153.275 97.2722 153.115 96.5682 152.944C95.7256 152.731 95.0536 152.528 94.5522 152.336C94.0509 152.133 93.6189 151.829 93.2562 151.424C92.9042 151.019 92.7282 150.469 92.7282 149.776C92.7282 149.211 92.8776 148.699 93.1762 148.24C93.4749 147.771 93.9336 147.397 94.5522 147.12C95.1709 146.843 95.9389 146.704 96.8562 146.704C97.4962 146.704 98.1202 146.795 98.7282 146.976C99.3469 147.147 99.8802 147.387 100.328 147.696L99.9282 148.64C99.4589 148.331 98.9576 148.101 98.4242 147.952C97.8909 147.792 97.3682 147.712 96.8562 147.712C95.8749 147.712 95.1336 147.904 94.6322 148.288C94.1416 148.661 93.8962 149.147 93.8962 149.744C93.8962 150.192 94.0296 150.555 94.2962 150.832C94.5736 151.099 94.9149 151.307 95.3202 151.456C95.7362 151.595 96.2909 151.749 96.9842 151.92C97.8056 152.123 98.4669 152.325 98.9682 152.528C99.4802 152.72 99.9122 153.019 100.264 153.424C100.616 153.819 100.792 154.357 100.792 155.04C100.792 155.605 100.638 156.123 100.328 156.592C100.03 157.051 99.5656 157.419 98.9362 157.696C98.3069 157.963 97.5336 158.096 96.6162 158.096ZM116.818 158.944C116.477 159.36 116.071 159.675 115.602 159.888C115.143 160.112 114.642 160.224 114.098 160.224C113.437 160.224 112.807 160.059 112.21 159.728C111.623 159.408 110.962 158.864 110.226 158.096C109.149 158.064 108.178 157.797 107.314 157.296C106.45 156.795 105.773 156.117 105.282 155.264C104.791 154.411 104.546 153.456 104.546 152.4C104.546 151.323 104.797 150.352 105.298 149.488C105.81 148.624 106.514 147.947 107.41 147.456C108.317 146.955 109.325 146.704 110.434 146.704C111.543 146.704 112.541 146.949 113.426 147.44C114.322 147.931 115.026 148.613 115.538 149.488C116.05 150.352 116.306 151.323 116.306 152.4C116.306 153.339 116.109 154.203 115.714 154.992C115.33 155.771 114.786 156.421 114.082 156.944C113.389 157.467 112.589 157.813 111.682 157.984C112.503 158.848 113.314 159.28 114.114 159.28C114.946 159.28 115.655 158.939 116.242 158.256L116.818 158.944ZM105.714 152.4C105.714 153.275 105.917 154.064 106.322 154.768C106.738 155.472 107.303 156.027 108.018 156.432C108.743 156.837 109.549 157.04 110.434 157.04C111.319 157.04 112.119 156.837 112.834 156.432C113.549 156.027 114.109 155.472 114.514 154.768C114.919 154.064 115.122 153.275 115.122 152.4C115.122 151.525 114.919 150.736 114.514 150.032C114.109 149.328 113.549 148.773 112.834 148.368C112.119 147.963 111.319 147.76 110.434 147.76C109.549 147.76 108.743 147.963 108.018 148.368C107.303 148.773 106.738 149.328 106.322 150.032C105.917 150.736 105.714 151.525 105.714 152.4ZM121.126 146.8H122.31V156.976H128.582V158H121.126V146.8Z" fill="#BDEBEA"/>
<path d="M120.889 71.8826C120.189 69.7638 118.357 68.2881 115.987 67.9339C114.869 67.7671 113.59 67.8382 112.075 68.1504C109.435 68.695 107.477 68.9024 106.048 68.9425C111.443 59.8342 115.829 49.4475 118.355 39.6702C122.438 23.8605 120.256 16.6581 117.706 13.4004C110.958 4.77748 101.112 0.145172 89.234 0.00343171C82.8976 -0.0740469 77.3351 1.177 74.4333 2.07667C71.7316 1.59995 68.8266 1.33378 65.7785 1.28456C60.0647 1.19341 55.0163 2.43899 50.7026 4.99898C48.3144 4.19138 44.4815 3.0529 40.0552 2.32642C29.6448 0.617335 21.2543 1.94906 15.1171 6.28467C7.68552 11.5341 4.24046 20.6547 4.87761 33.3931C5.07996 37.4374 7.34234 49.7429 10.9045 61.413C12.9518 68.1208 15.1349 73.691 17.3931 77.9706C20.5957 84.039 24.0226 87.6126 27.8696 88.896C30.0258 89.6143 33.9435 90.1174 38.064 86.6856C38.5863 87.3182 39.2831 87.9467 40.2079 88.5305C41.3823 89.2711 42.8184 89.8763 44.2527 90.235C49.4214 91.5271 54.2629 91.2039 58.3934 89.3928C58.419 90.1274 58.4386 90.8293 58.455 91.4355C58.4823 92.4185 58.5097 93.3825 58.5457 94.284C58.7904 100.379 59.2051 105.119 60.4339 108.435C60.5013 108.617 60.592 108.895 60.6877 109.19C61.3007 111.067 62.3257 114.209 64.9335 116.669C67.6339 119.218 70.9003 120 73.8919 120C75.3923 120 76.8238 119.803 78.0794 119.534C82.5549 118.575 87.638 117.114 91.315 111.878C94.7915 106.928 96.4815 99.4736 96.7873 87.7274C96.8269 87.3952 96.8634 87.078 96.8985 86.7758L96.9714 86.1551L97.7904 86.2271L98.0014 86.2412C102.56 86.449 108.134 85.4824 111.557 83.8922C114.262 82.6371 122.93 78.0608 120.889 71.8826Z" fill="black"/>
<path d="M113.095 73.0839C99.5413 75.88 98.6093 71.291 98.6093 71.291C112.92 50.0559 118.903 23.1011 113.74 16.5041C99.6557 -1.49149 75.275 7.01931 74.868 7.23989L74.7372 7.26359C72.0592 6.70757 69.0626 6.37669 65.6941 6.32154C59.5614 6.22128 54.909 7.92945 51.3788 10.6066C51.3788 10.6066 7.88593 -7.31104 9.90903 33.141C10.3393 41.7466 22.2436 98.2563 36.4423 81.1878C41.632 74.9462 46.6466 69.669 46.6466 69.669C49.1369 71.3234 52.1185 72.1674 55.244 71.8643L55.4869 71.6583C55.4113 72.4331 55.4459 73.191 55.584 74.0884C51.9261 78.1752 53.0013 78.8926 45.6891 80.3979C38.2899 81.9229 42.6364 84.6374 45.4744 85.3474C48.9149 86.2075 56.8743 87.4261 62.2522 79.8975L62.038 80.7566C63.4709 81.9047 64.4772 88.2233 64.3086 93.9517C64.1399 99.6796 64.0274 103.612 65.1563 106.684C66.2861 109.756 67.4114 116.667 77.0242 114.608C85.056 112.887 89.2184 108.426 89.7977 100.985C90.2083 95.6958 91.1385 96.4779 91.1968 91.7485L91.9429 89.5099C92.8029 82.3394 92.0796 80.026 97.0278 81.1021L98.231 81.2078C101.872 81.3732 106.64 80.6217 109.438 79.3214C115.462 76.5258 119.035 71.8575 113.095 73.0839H113.095Z" fill="#336791"/>
<path d="M53.9253 36.9892C52.7039 36.8192 51.5978 36.9765 51.0381 37.4003C50.7236 37.6387 50.6261 37.9149 50.5997 38.1049C50.5295 38.6085 50.8822 39.1654 51.0992 39.4526C51.7126 40.2656 52.6086 40.8244 53.4955 40.9475C53.6241 40.9657 53.7521 40.9739 53.8793 40.9739C55.3582 40.9739 56.7032 39.8222 56.8216 38.9722C56.9698 37.9076 55.4243 37.1979 53.9253 36.9897" fill="white"/>
<path d="M94.3868 37.0233C94.2701 36.1888 92.7853 35.9509 91.3761 36.1469C89.9687 36.3429 88.6042 36.9782 88.7181 37.8145C88.8092 38.4649 89.9837 39.5751 91.3738 39.5751C91.4914 39.5751 91.6099 39.5673 91.7293 39.5505C92.6572 39.422 93.3381 38.8327 93.6617 38.4931C94.1539 37.9754 94.4392 37.3984 94.3868 37.0233Z" fill="white"/>
<path d="M117.606 72.7665C117.089 71.2037 115.426 70.701 112.662 71.2716C104.456 72.9652 101.517 71.7921 100.552 71.0815C106.931 61.3648 112.178 49.619 115.009 38.6604C116.349 33.4693 117.09 28.6483 117.151 24.7188C117.218 20.406 116.483 17.2366 114.968 15.3006C108.86 7.49576 99.8953 3.30918 89.0437 3.19433C81.5834 3.11047 75.2803 5.01963 74.0584 5.55651C71.4852 4.91663 68.68 4.52377 65.626 4.47364C60.0257 4.38294 55.1846 5.72378 51.1767 8.45695C49.4357 7.80886 44.9365 6.2643 39.4341 5.37786C29.9216 3.84652 22.3624 5.00687 16.9681 8.82839C10.5314 13.3887 7.55991 21.5403 8.13553 33.0564C8.32923 36.9308 10.5369 48.8497 14.0207 60.2642C18.6065 75.2877 23.5916 83.7926 28.8364 85.5422C29.4503 85.7469 30.1581 85.89 30.9388 85.89C32.8521 85.89 35.1979 85.0277 37.6385 82.0935C40.6153 78.5225 43.6946 75.0381 46.8726 71.6448C48.9344 72.7514 51.1995 73.3694 53.5161 73.4314C53.5207 73.492 53.5266 73.5526 53.5321 73.6128C53.1333 74.0883 52.7428 74.5707 52.3608 75.0598C50.7556 77.0975 50.4215 77.5218 45.2546 78.5856C43.7848 78.8891 39.8812 79.6935 39.8238 82.4299C39.7618 85.4196 44.4384 86.6752 44.9711 86.8083C46.8279 87.2732 48.6167 87.5024 50.3226 87.5024C54.4714 87.5024 58.1224 86.1388 61.0402 83.5004C60.9504 94.1588 61.3948 104.661 62.6745 107.861C63.7228 110.481 66.2832 116.883 74.3711 116.882C75.5579 116.882 76.8641 116.744 78.3011 116.436C86.7421 114.627 90.4078 110.896 91.8256 102.671C92.5845 98.2751 93.8866 87.7786 94.4991 82.1482C95.7916 82.5516 97.4556 82.7361 99.2545 82.7357C103.006 82.7357 107.335 81.9386 110.05 80.6784C113.1 79.2619 118.604 75.7863 117.606 72.7665ZM97.5044 34.7199C97.4766 36.3821 97.2478 37.8911 97.0053 39.4662C96.7442 41.1602 96.4743 42.9117 96.4064 45.0378C96.3394 47.1069 96.5979 49.2581 96.8476 51.3386C97.3526 55.5407 97.8708 59.8667 95.865 64.1353C95.5318 63.545 95.235 62.9348 94.9763 62.3082C94.727 61.7039 94.1855 60.7331 93.4358 59.3896C90.5194 54.1593 83.6899 41.9113 87.186 36.9135C88.2274 35.4259 90.8704 33.8964 97.5044 34.7199ZM89.463 6.56009C99.1861 6.77475 106.877 10.4121 112.323 17.3706C116.499 22.708 111.9 46.9939 98.5863 67.9455C98.4524 67.7752 98.3178 67.6055 98.1825 67.4364L98.0139 67.2258C101.454 61.5439 100.782 55.9222 100.183 50.938C99.9367 48.8926 99.7043 46.9606 99.7635 45.1458C99.8246 43.2225 100.079 41.5727 100.325 39.9775C100.627 38.0118 100.935 35.9778 100.85 33.5801C100.913 33.3285 100.939 33.0313 100.906 32.6786C100.689 30.3793 98.064 23.4978 92.7134 17.2695C89.7866 13.8627 85.5184 10.0503 79.6907 7.4789C82.1973 6.95933 85.6251 6.47486 89.463 6.56009ZM35.0557 79.946C32.3667 83.1791 30.51 82.5593 29.8993 82.356C25.9205 81.0289 21.3037 72.6193 17.2333 59.2838C13.7113 47.745 11.6531 36.1419 11.4899 32.8882C10.9758 22.5982 13.4702 15.4268 18.9041 11.573C27.7476 5.30175 42.2872 9.05536 48.1295 10.9591C48.0457 11.042 47.9582 11.1195 47.8752 11.2038C38.2879 20.8859 38.5153 37.428 38.539 38.4393C38.5381 38.8295 38.5709 39.3818 38.6156 40.1416C38.7806 42.924 39.0878 48.1023 38.2674 53.9665C37.5054 59.416 39.1853 64.7497 42.8756 68.6004C43.2543 68.9948 43.6524 69.3702 44.0683 69.7252C42.4257 71.4844 38.8558 75.3748 35.0557 79.946ZM45.3006 66.2765C42.3264 63.1728 40.9755 58.8559 41.594 54.4314C42.4599 48.2367 42.1404 42.8415 41.9686 39.9429C41.9445 39.5373 41.923 39.1818 41.9107 38.9015C43.3113 37.6595 49.8017 34.1821 54.4304 35.2427C56.5423 35.7262 57.8294 37.1646 58.3645 39.6384C61.1336 52.4466 58.7309 57.7848 56.8003 62.0749C56.4024 62.9586 56.0264 63.794 55.7056 64.6581L55.4567 65.3262C54.8269 67.0153 54.2408 68.5858 53.8775 70.077C50.7155 70.0679 47.6396 68.7171 45.3006 66.276V66.2765ZM45.786 83.5497C44.8627 83.319 44.0323 82.9184 43.5451 82.5862C43.9521 82.3948 44.6763 82.1341 45.9323 81.8752C52.0107 80.6242 52.9496 79.7409 54.9996 77.1381C55.4695 76.541 56.0023 75.8647 56.7401 75.0407L56.741 75.0398C57.8399 73.8092 58.3426 74.018 59.2541 74.3962C59.9929 74.7016 60.7125 75.6277 61.0042 76.6468C61.1423 77.1281 61.2972 78.0414 60.79 78.7524C56.5077 84.7483 50.2675 84.6713 45.786 83.5497ZM77.5974 113.152C70.1613 114.745 67.5283 110.951 65.7933 106.614C64.6735 103.813 64.1229 91.1863 64.5135 77.2415C64.5185 77.056 64.4921 76.8769 64.441 76.7083C64.3954 76.3753 64.3259 76.046 64.2332 75.723C63.6526 73.6939 62.2375 71.9967 60.5398 71.293C59.8653 71.0136 58.6274 70.5009 57.1398 70.8815C57.457 69.5743 58.0071 68.0981 58.6037 66.4998L58.8539 65.8276C59.1356 65.0696 59.4893 64.2844 59.863 63.4531C61.8833 58.9648 64.6502 52.8171 61.6473 38.9288C60.5225 33.7268 56.7661 31.1864 51.0719 31.7766C47.6583 32.1299 44.535 33.5071 42.9772 34.297C42.6422 34.4665 42.3359 34.6306 42.0497 34.7901C42.4845 29.5489 44.1271 19.7538 50.2716 13.5564C54.1405 9.65513 59.2928 7.72819 65.5704 7.83211C77.9397 8.03446 85.8716 14.3822 90.3481 19.6722C94.2056 24.2302 96.2943 28.822 97.1279 31.2986C90.859 30.6609 86.5954 31.8983 84.4342 34.9884C79.7321 41.7099 87.0065 54.7554 90.5026 61.0253C91.1438 62.1742 91.6971 63.1673 91.8712 63.5894C93.0097 66.3485 94.4836 68.1907 95.5596 69.5351C95.8896 69.9472 96.2096 70.3468 96.4529 70.696C94.5543 71.2433 91.1438 72.508 91.4546 78.8298C91.204 82.0019 89.4215 96.8532 88.5159 102.1C87.3205 109.032 84.7696 111.614 77.5974 113.152V113.152ZM108.636 77.6321C106.695 78.5331 103.446 79.209 100.359 79.3544C96.9502 79.5139 95.2146 78.9725 94.8063 78.6393C94.6149 74.6998 96.081 74.2882 97.6329 73.8525C97.8767 73.7842 98.1146 73.7172 98.3443 73.637C98.487 73.7532 98.6433 73.8685 98.8147 73.9815C101.555 75.7899 106.442 75.985 113.341 74.5608L113.417 74.5457C112.486 75.4158 110.894 76.5834 108.636 77.6321Z" fill="white"/>
</svg>
